<svg viewBox="0 0 574 258" xmlns="http://www.w3.org/2000/svg" role="img" aria-label="Ayberk Ceyran imzası">
<path d="M 20.00,160.00 C 22.00,140.00 23.00,118.83 26.00,100.00 C 29.00,81.17 34.00,42.00 38.00,47.00 C 42.00,52.00 49.67,114.17 50.00,130.00 C 50.33,145.83 39.33,145.33 40.00,142.00 C 40.67,138.67 49.67,124.50 54.00,110.00 C 58.33,95.50 62.00,51.67 66.00,55.00 C 70.00,58.33 74.67,115.83 78.00,130.00 C 81.33,144.17 83.33,140.67 86.00,140.00 C 88.67,139.33 92.33,126.00 94.00,126.00 C 95.67,126.00 94.33,145.50 96.00,140.00 C 97.67,134.50 101.33,94.00 104.00,93.00 C 106.67,92.00 109.67,124.50 112.00,134.00 C 114.33,143.50 118.00,142.67 118.00,150.00 C 118.00,157.33 115.33,170.00 112.00,178.00 C 108.67,186.00 98.00,195.67 98.00,198.00 C 98.00,200.33 107.33,202.33 112.00,192.00 C 116.67,181.67 123.00,160.33 126.00,136.00 C 129.00,111.67 129.33,50.33 130.00,46.00 C 130.67,41.67 127.67,95.00 130.00,110.00 C 132.33,125.00 139.33,135.00 144.00,136.00 C 148.67,137.00 155.67,115.67 158.00,116.00 C 160.33,116.33 160.33,133.00 158.00,138.00 C 155.67,143.00 148.33,146.00 144.00,146.00 C 139.67,146.00 127.33,141.67 132.00,138.00 C 136.67,134.33 165.67,124.33 172.00,124.00 C 178.33,123.67 169.33,141.50 170.00,136.00 C 170.67,130.50 172.67,98.83 176.00,91.00 C 179.33,83.17 187.33,85.17 190.00,89.00 C 192.67,92.83 194.00,105.83 192.00,114.00 C 190.00,122.17 178.00,133.33 178.00,138.00 C 178.00,142.67 187.67,144.00 192.00,142.00 C 196.33,140.00 202.33,126.67 204.00,126.00 C 205.67,125.33 201.67,142.83 202.00,138.00 C 202.33,133.17 204.33,104.83 206.00,97.00 C 207.67,89.17 210.00,87.50 212.00,91.00 C 214.00,94.50 216.00,109.83 218.00,118.00 C 220.00,126.17 222.33,151.67 224.00,140.00 C 225.67,128.33 227.33,52.33 228.00,48.00 C 228.67,43.67 228.67,105.33 228.00,114.00 C 227.33,122.67 221.67,99.00 224.00,100.00 C 226.33,101.00 241.33,114.67 242.00,120.00 C 242.67,125.33 227.33,128.00 228.00,132.00 C 228.67,136.00 236.33,143.67 246.00,144.00 C 255.67,144.33 275.17,133.00 286.00,134.00 C 296.83,135.00 301.00,164.17 311.00,150.00 C 321.00,135.83 343.83,63.83 346.00,49.00 C 348.17,34.17 329.67,48.17 324.00,61.00 C 318.33,73.83 312.33,110.17 312.00,126.00 C 311.67,141.83 316.33,150.67 322.00,156.00 C 327.67,161.33 340.67,160.67 346.00,158.00 C 351.33,155.33 351.33,145.33 354.00,140.00 C 356.67,134.67 360.67,126.67 362.00,126.00 C 363.33,125.33 361.00,141.83 362.00,136.00 C 363.00,130.17 364.67,98.83 368.00,91.00 C 371.33,83.17 379.33,85.17 382.00,89.00 C 384.67,92.83 386.00,105.83 384.00,114.00 C 382.00,122.17 370.00,133.33 370.00,138.00 C 370.00,142.67 379.67,149.50 384.00,142.00 C 388.33,134.50 392.67,94.33 396.00,93.00 C 399.33,91.67 401.67,124.50 404.00,134.00 C 406.33,143.50 410.00,142.67 410.00,150.00 C 410.00,157.33 407.33,170.00 404.00,178.00 C 400.67,186.00 390.00,195.67 390.00,198.00 C 390.00,200.33 399.33,202.33 404.00,192.00 C 408.67,181.67 415.33,145.00 418.00,136.00 C 420.67,127.00 419.00,144.50 420.00,138.00 C 421.00,131.50 422.33,104.83 424.00,97.00 C 425.67,89.17 428.00,87.50 430.00,91.00 C 432.00,94.50 434.00,109.83 436.00,118.00 C 438.00,126.17 440.33,140.33 442.00,140.00 C 443.67,139.67 442.33,124.83 446.00,116.00 C 449.67,107.17 460.00,86.33 464.00,87.00 C 468.00,87.67 469.67,110.50 470.00,120.00 C 470.33,129.50 465.33,144.00 466.00,144.00 C 466.67,144.00 472.00,121.00 474.00,120.00 C 476.00,119.00 477.00,135.00 478.00,138.00 C 479.00,141.00 479.00,144.50 480.00,138.00 C 481.00,131.50 482.33,106.50 484.00,99.00 C 485.67,91.50 488.00,89.50 490.00,93.00 C 492.00,96.50 494.00,112.17 496.00,120.00 C 498.00,127.83 498.00,141.67 502.00,140.00 C 506.00,138.33 513.33,110.33 520.00,110.00 C 526.67,109.67 534.67,128.67 542.00,138.00" fill="none" stroke="#1A1A1A" stroke-width="15" stroke-linecap="round" stroke-linejoin="round"/>
<path d="M 300.00,220.00 C 315.12,225.33 328.56,237.00 345.36,236.00 C 362.16,235.00 382.32,214.67 400.80,214.00 C 419.28,213.33 438.60,232.33 456.24,232.00 C 473.88,231.67 490.68,213.00 506.64,212.00 C 522.60,211.00 536.88,221.33 552.00,226.00" fill="none" stroke="#1A1A1A" stroke-width="17" stroke-linecap="round" stroke-linejoin="round"/>
</svg>
